<mxfile host="app.diagrams.net" agent="Mozilla/5.0 (X11; Linux x86_64; rv:133.0) Gecko/20100101 Firefox/133.0" version="26.0.6">
  <diagram name="StrÃ¡nka-1" id="rQpmYiv-CIv9iJXDFBNM">
    <mxGraphModel dx="1114" dy="567" grid="1" gridSize="10" guides="1" tooltips="1" connect="1" arrows="1" fold="1" page="1" pageScale="1" pageWidth="583" pageHeight="827" math="0" shadow="0">
      <root>
        <mxCell id="0" />
        <mxCell id="1" parent="0" />
        <mxCell id="hpunQlr31OQdsXJDcbAm-1" value="Raspberry Pi Zero" style="rounded=0;whiteSpace=wrap;html=1;" parent="1" vertex="1">
          <mxGeometry x="294" y="210" width="120" height="60" as="geometry" />
        </mxCell>
        <mxCell id="hpunQlr31OQdsXJDcbAm-16" style="edgeStyle=orthogonalEdgeStyle;rounded=0;orthogonalLoop=1;jettySize=auto;html=1;exitX=0.5;exitY=0;exitDx=0;exitDy=0;entryX=0.5;entryY=1;entryDx=0;entryDy=0;" parent="1" source="hpunQlr31OQdsXJDcbAm-2" target="hpunQlr31OQdsXJDcbAm-15" edge="1">
          <mxGeometry relative="1" as="geometry" />
        </mxCell>
        <mxCell id="hpunQlr31OQdsXJDcbAm-37" style="edgeStyle=orthogonalEdgeStyle;rounded=0;orthogonalLoop=1;jettySize=auto;html=1;exitX=1;exitY=0.5;exitDx=0;exitDy=0;entryX=0;entryY=0.5;entryDx=0;entryDy=0;" parent="1" source="hpunQlr31OQdsXJDcbAm-2" target="hpunQlr31OQdsXJDcbAm-36" edge="1">
          <mxGeometry relative="1" as="geometry" />
        </mxCell>
        <mxCell id="hpunQlr31OQdsXJDcbAm-40" style="edgeStyle=orthogonalEdgeStyle;rounded=0;orthogonalLoop=1;jettySize=auto;html=1;exitX=0.5;exitY=1;exitDx=0;exitDy=0;entryX=0;entryY=0.5;entryDx=0;entryDy=0;" parent="1" source="hpunQlr31OQdsXJDcbAm-2" target="hpunQlr31OQdsXJDcbAm-39" edge="1">
          <mxGeometry relative="1" as="geometry" />
        </mxCell>
        <mxCell id="hpunQlr31OQdsXJDcbAm-2" value="PCA9685" style="rounded=0;whiteSpace=wrap;html=1;" parent="1" vertex="1">
          <mxGeometry x="490" y="210" width="120" height="60" as="geometry" />
        </mxCell>
        <mxCell id="hpunQlr31OQdsXJDcbAm-3" value="&lt;div&gt;ADS1115&lt;/div&gt;" style="rounded=0;whiteSpace=wrap;html=1;" parent="1" vertex="1">
          <mxGeometry x="490" y="390" width="120" height="60" as="geometry" />
        </mxCell>
        <mxCell id="hpunQlr31OQdsXJDcbAm-4" value="Raspberry Pi Camera" style="rounded=0;whiteSpace=wrap;html=1;" parent="1" vertex="1">
          <mxGeometry x="294" y="320" width="120" height="60" as="geometry" />
        </mxCell>
        <mxCell id="hpunQlr31OQdsXJDcbAm-27" style="edgeStyle=orthogonalEdgeStyle;rounded=0;orthogonalLoop=1;jettySize=auto;html=1;entryX=0;entryY=0.5;entryDx=0;entryDy=0;startArrow=oval;startFill=1;" parent="1" target="hpunQlr31OQdsXJDcbAm-24" edge="1">
          <mxGeometry relative="1" as="geometry">
            <mxPoint x="170" y="90" as="sourcePoint" />
            <mxPoint x="480" y="520" as="targetPoint" />
            <Array as="points">
              <mxPoint x="170" y="90" />
              <mxPoint x="170" y="520" />
            </Array>
          </mxGeometry>
        </mxCell>
        <mxCell id="hpunQlr31OQdsXJDcbAm-38" style="edgeStyle=orthogonalEdgeStyle;rounded=0;orthogonalLoop=1;jettySize=auto;html=1;entryX=0.5;entryY=0;entryDx=0;entryDy=0;startArrow=oval;startFill=1;" parent="1" target="hpunQlr31OQdsXJDcbAm-15" edge="1">
          <mxGeometry relative="1" as="geometry">
            <mxPoint x="180" y="90" as="sourcePoint" />
            <Array as="points">
              <mxPoint x="180" y="90" />
              <mxPoint x="180" y="40" />
              <mxPoint x="550" y="40" />
            </Array>
          </mxGeometry>
        </mxCell>
        <mxCell id="hpunQlr31OQdsXJDcbAm-5" value="Li-Po 2S battery" style="rounded=0;whiteSpace=wrap;html=1;" parent="1" vertex="1">
          <mxGeometry x="40" y="60" width="120" height="60" as="geometry" />
        </mxCell>
        <mxCell id="hpunQlr31OQdsXJDcbAm-20" style="edgeStyle=orthogonalEdgeStyle;rounded=0;orthogonalLoop=1;jettySize=auto;html=1;entryX=0.5;entryY=0;entryDx=0;entryDy=0;startArrow=oval;startFill=1;" parent="1" target="hpunQlr31OQdsXJDcbAm-1" edge="1">
          <mxGeometry relative="1" as="geometry">
            <mxPoint x="370" y="90" as="sourcePoint" />
          </mxGeometry>
        </mxCell>
        <mxCell id="hpunQlr31OQdsXJDcbAm-21" value="5V" style="edgeLabel;html=1;align=center;verticalAlign=middle;resizable=0;points=[];" parent="hpunQlr31OQdsXJDcbAm-20" vertex="1" connectable="0">
          <mxGeometry x="0.0385" y="-2" relative="1" as="geometry">
            <mxPoint as="offset" />
          </mxGeometry>
        </mxCell>
        <mxCell id="hpunQlr31OQdsXJDcbAm-41" style="edgeStyle=orthogonalEdgeStyle;rounded=0;orthogonalLoop=1;jettySize=auto;html=1;exitX=1;exitY=0.5;exitDx=0;exitDy=0;entryX=1;entryY=0.5;entryDx=0;entryDy=0;" parent="1" source="hpunQlr31OQdsXJDcbAm-6" target="hpunQlr31OQdsXJDcbAm-39" edge="1">
          <mxGeometry relative="1" as="geometry" />
        </mxCell>
        <mxCell id="hpunQlr31OQdsXJDcbAm-6" value="Step-down converter" style="rounded=0;whiteSpace=wrap;html=1;" parent="1" vertex="1">
          <mxGeometry x="230" y="60" width="120" height="60" as="geometry" />
        </mxCell>
        <mxCell id="hpunQlr31OQdsXJDcbAm-9" value="" style="endArrow=classic;html=1;rounded=0;exitX=1;exitY=0.5;exitDx=0;exitDy=0;entryX=0;entryY=0.5;entryDx=0;entryDy=0;" parent="1" source="hpunQlr31OQdsXJDcbAm-5" target="hpunQlr31OQdsXJDcbAm-6" edge="1">
          <mxGeometry width="50" height="50" relative="1" as="geometry">
            <mxPoint x="250" y="180" as="sourcePoint" />
            <mxPoint x="300" y="130" as="targetPoint" />
          </mxGeometry>
        </mxCell>
        <mxCell id="hpunQlr31OQdsXJDcbAm-10" value="7.4 V" style="edgeLabel;html=1;align=center;verticalAlign=middle;resizable=0;points=[];" parent="hpunQlr31OQdsXJDcbAm-9" vertex="1" connectable="0">
          <mxGeometry x="0.1657" relative="1" as="geometry">
            <mxPoint as="offset" />
          </mxGeometry>
        </mxCell>
        <mxCell id="hpunQlr31OQdsXJDcbAm-11" value="" style="endArrow=classic;startArrow=classic;html=1;rounded=0;exitX=1;exitY=0.5;exitDx=0;exitDy=0;entryX=0;entryY=0.5;entryDx=0;entryDy=0;" parent="1" source="hpunQlr31OQdsXJDcbAm-1" target="hpunQlr31OQdsXJDcbAm-2" edge="1">
          <mxGeometry width="50" height="50" relative="1" as="geometry">
            <mxPoint x="420" y="310" as="sourcePoint" />
            <mxPoint x="470" y="260" as="targetPoint" />
          </mxGeometry>
        </mxCell>
        <mxCell id="hpunQlr31OQdsXJDcbAm-12" value="" style="endArrow=classic;startArrow=oval;html=1;rounded=0;entryX=0;entryY=0.5;entryDx=0;entryDy=0;startFill=1;" parent="1" target="hpunQlr31OQdsXJDcbAm-3" edge="1">
          <mxGeometry width="50" height="50" relative="1" as="geometry">
            <mxPoint x="440" y="240" as="sourcePoint" />
            <mxPoint x="500" y="290" as="targetPoint" />
            <Array as="points">
              <mxPoint x="440" y="240" />
              <mxPoint x="440" y="420" />
            </Array>
          </mxGeometry>
        </mxCell>
        <mxCell id="hpunQlr31OQdsXJDcbAm-13" value="I2C, 3.3 V" style="edgeLabel;html=1;align=center;verticalAlign=middle;resizable=0;points=[];" parent="hpunQlr31OQdsXJDcbAm-12" vertex="1" connectable="0">
          <mxGeometry x="-0.3613" relative="1" as="geometry">
            <mxPoint as="offset" />
          </mxGeometry>
        </mxCell>
        <mxCell id="hpunQlr31OQdsXJDcbAm-14" value="" style="endArrow=classic;startArrow=classic;html=1;rounded=0;exitX=0.5;exitY=0;exitDx=0;exitDy=0;entryX=0.5;entryY=1;entryDx=0;entryDy=0;" parent="1" source="hpunQlr31OQdsXJDcbAm-4" target="hpunQlr31OQdsXJDcbAm-1" edge="1">
          <mxGeometry width="50" height="50" relative="1" as="geometry">
            <mxPoint x="460" y="310" as="sourcePoint" />
            <mxPoint x="510" y="260" as="targetPoint" />
          </mxGeometry>
        </mxCell>
        <mxCell id="hpunQlr31OQdsXJDcbAm-18" value="" style="edgeStyle=orthogonalEdgeStyle;rounded=0;orthogonalLoop=1;jettySize=auto;html=1;" parent="1" source="hpunQlr31OQdsXJDcbAm-15" target="hpunQlr31OQdsXJDcbAm-17" edge="1">
          <mxGeometry relative="1" as="geometry" />
        </mxCell>
        <mxCell id="hpunQlr31OQdsXJDcbAm-15" value="4 x L9110S" style="rounded=0;whiteSpace=wrap;html=1;" parent="1" vertex="1">
          <mxGeometry x="490" y="120" width="120" height="60" as="geometry" />
        </mxCell>
        <mxCell id="hpunQlr31OQdsXJDcbAm-17" value="4 x DC motor" style="rounded=0;whiteSpace=wrap;html=1;" parent="1" vertex="1">
          <mxGeometry x="650" y="120" width="120" height="60" as="geometry" />
        </mxCell>
        <mxCell id="hpunQlr31OQdsXJDcbAm-25" style="edgeStyle=orthogonalEdgeStyle;rounded=0;orthogonalLoop=1;jettySize=auto;html=1;exitX=0.5;exitY=0;exitDx=0;exitDy=0;entryX=0.5;entryY=1;entryDx=0;entryDy=0;" parent="1" source="hpunQlr31OQdsXJDcbAm-24" target="hpunQlr31OQdsXJDcbAm-3" edge="1">
          <mxGeometry relative="1" as="geometry" />
        </mxCell>
        <mxCell id="hpunQlr31OQdsXJDcbAm-24" value="Voltage divider" style="rounded=0;whiteSpace=wrap;html=1;" parent="1" vertex="1">
          <mxGeometry x="490" y="490" width="120" height="60" as="geometry" />
        </mxCell>
        <mxCell id="hpunQlr31OQdsXJDcbAm-32" style="edgeStyle=orthogonalEdgeStyle;rounded=0;orthogonalLoop=1;jettySize=auto;html=1;exitX=1;exitY=0.5;exitDx=0;exitDy=0;entryX=0;entryY=0.25;entryDx=0;entryDy=0;" parent="1" source="hpunQlr31OQdsXJDcbAm-28" target="hpunQlr31OQdsXJDcbAm-1" edge="1">
          <mxGeometry relative="1" as="geometry" />
        </mxCell>
        <mxCell id="hpunQlr31OQdsXJDcbAm-28" value="Reset button" style="rounded=0;whiteSpace=wrap;html=1;" parent="1" vertex="1">
          <mxGeometry x="180" y="210" width="80" height="30" as="geometry" />
        </mxCell>
        <mxCell id="hpunQlr31OQdsXJDcbAm-35" style="edgeStyle=orthogonalEdgeStyle;rounded=0;orthogonalLoop=1;jettySize=auto;html=1;exitX=1;exitY=0.5;exitDx=0;exitDy=0;entryX=0.003;entryY=0.694;entryDx=0;entryDy=0;entryPerimeter=0;" parent="1" source="hpunQlr31OQdsXJDcbAm-29" target="hpunQlr31OQdsXJDcbAm-1" edge="1">
          <mxGeometry relative="1" as="geometry">
            <mxPoint x="270" y="250" as="targetPoint" />
          </mxGeometry>
        </mxCell>
        <mxCell id="hpunQlr31OQdsXJDcbAm-29" value="Power button (GPIO 26)" style="rounded=0;whiteSpace=wrap;html=1;" parent="1" vertex="1">
          <mxGeometry x="180" y="260" width="80" height="30" as="geometry" />
        </mxCell>
        <mxCell id="hpunQlr31OQdsXJDcbAm-36" value="RGB LED indicator" style="rounded=0;whiteSpace=wrap;html=1;" parent="1" vertex="1">
          <mxGeometry x="650" y="210" width="120" height="60" as="geometry" />
        </mxCell>
        <mxCell id="hpunQlr31OQdsXJDcbAm-39" value="Headlight (LED switched by a BJT)" style="rounded=0;whiteSpace=wrap;html=1;" parent="1" vertex="1">
          <mxGeometry x="650" y="300" width="120" height="60" as="geometry" />
        </mxCell>
      </root>
    </mxGraphModel>
  </diagram>
</mxfile>
